<svg height="16" viewBox="0 0 16 16" width="16" xmlns="http://www.w3.org/2000/svg"><g fill="#fff" fill-rule="evenodd"><path d="m12.276 3.048c-.06-.06-.096-.12-.096-.204s.036-.144.096-.204c.12-.108.312-.108.444 0 .06.06.096.12.096.204s-.036.144-.096.204c-.06.048-.144.084-.216.084-.084.012-.168-.012-.228-.084z"/><path d="m11.508 3.876c-.048-.06-.084-.12-.084-.204s.036-.144.084-.204c.108-.108.3-.108.408 0 .048.06.084.12.084.204s-.036.144-.084.204c-.06.048-.12.084-.204.084s-.144-.036-.204-.084z"/><path d="m10.668 4.668c-.048-.048-.084-.12-.084-.204s.036-.144.084-.204c.108-.108.3-.108.408 0 .048.048.084.12.084.204s-.036.144-.084.204c-.06.06-.12.084-.204.084s-.156-.036-.204-.084z"/><path d="m9.864 5.472c-.06-.048-.096-.12-.096-.204s.036-.144.096-.204c.12-.108.312-.108.444 0 .06.048.096.12.096.204s-.036.156-.096.204c-.06.06-.144.084-.216.084-.084 0-.156-.012-.228-.084z"/><path d="m9.096 6.276c-.06-.048-.084-.12-.084-.204s.036-.144.084-.204c.108-.108.3-.108.408 0 .06.048.084.12.084.204s-.036.156-.084.204c-.048.06-.12.084-.204.084-.072.012-.156-.012-.204-.084z"/><path d="m8.172 6.876c0-.084.036-.144.084-.204.108-.108.3-.108.408 0 .06.06.084.12.084.204s-.036.144-.084.204c-.048.048-.12.084-.204.084s-.144-.036-.204-.084-.084-.12-.084-.204z"/><path d="m6.672 8.652c-.048-.048-.084-.12-.084-.204s.036-.144.084-.204c.108-.108.3-.108.408 0 .06.06.084.12.084.204s-.036.144-.084.204-.12.084-.204.084c-.072.012-.144-.012-.204-.084z"/><path d="m5.844 9.456c-.06-.048-.096-.12-.096-.204s.036-.144.096-.204c.12-.108.312-.108.444 0 .06.06.096.12.096.204s-.036.144-.096.204-.144.084-.216.084c-.096.012-.168-.024-.228-.084z"/><path d="m5.064 10.272c-.048-.048-.084-.12-.084-.204s.036-.156.084-.204c.108-.108.3-.108.408 0 .048.048.084.12.084.204s-.036.144-.084.204c-.06.06-.12.084-.204.084s-.132-.036-.204-.084z"/><path d="m4.26 11.076c-.06-.048-.084-.12-.084-.204s.036-.144.084-.204c.108-.108.3-.108.408 0 .048.06.084.12.084.204s-.036.156-.084.204c-.06.06-.12.084-.204.084-.072 0-.156-.024-.204-.084z"/><path d="m3.432 11.88c-.06-.048-.096-.12-.096-.204s.036-.144.096-.204c.12-.108.312-.108.42 0 .06.06.096.12.096.204s-.036.156-.096.204-.144.084-.216.084c-.084 0-.156-.024-.204-.084z"/><path d="m2.64 12.684c-.06-.06-.084-.12-.084-.204s.036-.144.084-.204c.108-.108.3-.108.408 0 .06.06.084.12.084.204s-.036.144-.084.204c-.048.048-.12.084-.204.084-.06.012-.132-.024-.204-.084z"/><path d="m3.048 3.048c.048-.06.084-.12.084-.204s-.036-.144-.084-.204c-.108-.108-.3-.108-.408 0-.06.06-.084.12-.084.204s.036.144.084.204c.048.048.12.084.204.084.084.012.156-.012.204-.084z"/><path d="m3.852 3.876c.06-.06.096-.12.096-.204s-.036-.144-.096-.204c-.12-.108-.312-.108-.444 0-.06.06-.096.12-.096.204s.036.144.096.204c.06.048.144.084.216.084.084-.012.168-.036.228-.084z"/><path d="m4.668 4.668c.048-.048.084-.12.084-.204s-.036-.144-.084-.204c-.108-.108-.3-.108-.408 0-.048.048-.084.12-.084.204s.036.144.084.204c.06.06.12.084.204.084.072 0 .144-.036.204-.084z"/><path d="m5.472 5.472c.048-.048.084-.12.084-.204s-.036-.144-.084-.204c-.108-.108-.3-.108-.408 0-.048.048-.084.12-.084.204s.036.156.084.204c.06.06.12.084.204.084.072 0 .144-.012.204-.084z"/><path d="m6.264 6.276c.06-.048.096-.12.096-.204s-.036-.144-.096-.204c-.108-.108-.312-.108-.42 0-.06.048-.096.12-.096.204s.036.156.096.204c.06.06.144.084.216.084.072.012.156-.012.204-.084z"/><path d="m7.164 6.876c0-.084-.036-.144-.084-.204-.108-.108-.3-.108-.408 0-.06.06-.084.12-.084.204s.036.144.084.204c.048.048.12.084.204.084s.144-.036.204-.084.084-.12.084-.204z"/><path d="m7.884 7.896c.06-.06.084-.12.084-.204s-.036-.144-.084-.204c-.108-.108-.3-.108-.408 0-.06.06-.084.12-.084.204s.036.144.084.204c.048.048.12.084.204.084s.156-.036.204-.084z"/><path d="m8.688 8.652c.06-.048.096-.12.096-.204s-.036-.144-.096-.204c-.12-.108-.312-.108-.42 0-.06.06-.096.12-.096.204s.036.144.096.204.144.084.216.084c.06.012.144-.012.204-.084z"/><path d="m9.504 9.456c.048-.048.084-.12.084-.204s-.036-.144-.084-.204c-.108-.108-.3-.108-.408 0-.048.06-.084.12-.084.204s.036.144.084.204c.06.06.12.084.204.084.06.012.144-.024.204-.084z"/><path d="m10.308 10.272c.048-.048.084-.12.084-.204s-.036-.156-.084-.204c-.108-.108-.3-.108-.408 0-.048.048-.084.12-.084.204s.036.144.084.204c.06.06.12.084.204.084s.144-.036.204-.084z"/><path d="m11.064 11.076c.06-.048.084-.12.084-.204s-.036-.144-.084-.204c-.108-.108-.3-.108-.408 0-.048.06-.084.12-.084.204s.036.156.084.204c.06.06.12.084.204.084.072 0 .156-.024.204-.084z"/><path d="m11.916 11.88c.06-.048.084-.12.084-.204s-.036-.144-.084-.204c-.108-.108-.3-.108-.408 0-.06.06-.084.12-.084.204s.036.156.084.204.12.084.204.084.156-.024.204-.084z"/><path d="m12.72 12.684c.06-.06.096-.12.096-.204s-.036-.144-.096-.204c-.12-.108-.312-.108-.42 0-.06.06-.096.12-.096.204s.036.144.096.204c.06.048.144.084.216.084.06.012.132-.024.204-.084z"/><path d="m4.956 3.276c.816-.54 1.716-.792 2.712-.804.972 0 1.872.264 2.712.804l1.728-1.728c-1.356-1.032-2.82-1.548-4.44-1.548s-3.108.516-4.428 1.548z"/><path d="m3.228 10.368c-.552-.84-.816-1.728-.816-2.688 0-.972.264-1.872.816-2.688l-1.716-1.716c-1.008 1.32-1.512 2.784-1.512 4.416 0 1.608.504 3.084 1.524 4.428z"/><path d="m10.368 12.084c-.816.552-1.716.84-2.688.852-.996 0-1.908-.264-2.724-.84l-1.728 1.716c1.332 1.044 2.82 1.56 4.452 1.548 1.62-.012 3.084-.54 4.404-1.548z"/><path d="m12.06 4.968c.552.84.84 1.752.816 2.736-.012.96-.288 1.836-.816 2.64l1.728 1.716c1.02-1.32 1.548-2.784 1.548-4.392.012-1.632-.504-3.12-1.548-4.452z"/><path d="m13.86 12.624c.66 0 1.212.54 1.212 1.212 0 .66-.54 1.212-1.212 1.212-.66 0-1.212-.54-1.212-1.212s.54-1.212 1.212-1.212z"/><path d="m1.5 12.624c.66 0 1.2.54 1.2 1.212 0 .66-.54 1.212-1.2 1.212s-1.2-.54-1.2-1.212.54-1.212 1.2-1.212z"/><path d="m13.884.264c.66 0 1.2.54 1.2 1.212s-.54 1.212-1.2 1.212-1.2-.54-1.2-1.212.54-1.212 1.2-1.212z"/><path d="m1.476.264c.66 0 1.212.54 1.212 1.2s-.54 1.2-1.212 1.2c-.66 0-1.212-.54-1.212-1.2s.54-1.2 1.212-1.2z"/></g></svg>