<svg enable-background="new 0 0 200 200" viewBox="0 0 200 200" xmlns="http://www.w3.org/2000/svg" xmlns:xlink="http://www.w3.org/1999/xlink"><linearGradient id="a" gradientUnits="userSpaceOnUse" x1="3.4995" x2="196.4675" y1="77.672" y2="122.2222"><stop offset="0" stop-color="#4ead9e"/><stop offset=".287" stop-color="#57b1a0"/><stop offset=".7479" stop-color="#6ebca5"/><stop offset="1" stop-color="#7ec4a9"/></linearGradient><linearGradient id="b" gradientUnits="userSpaceOnUse" x1="73.32" x2="146.1722" y1="93.7382" y2="93.7382"><stop offset="0" stop-color="#d9d9d9"/><stop offset="1" stop-color="#fff"/></linearGradient><linearGradient id="c" gradientUnits="userSpaceOnUse" x1="131.0552" x2="50.4296" y1="115.6714" y2="78.072"><stop offset="0" stop-color="#c6c6c5"/><stop offset="1" stop-color="#fff"/></linearGradient><circle cx="100" cy="99.9" fill="url(#a)" r="99"/><path d="m77.7 123.3c-.7-.2-1.4-.5-2.2-.9.7.3 1.4.6 2.2.9z" fill="#ffd103"/><path d="m144 66.3c-1.4-3.2-3.4-6.1-6-8.5s-5.5-4.3-8.9-5.7-7-2-11-2h-25.2c-10 4.5-16 11-19.6 16.4 2.4-1.9 5.2-2.9 8.5-2.9h36.3c3.8 0 7 1.3 9.6 3.8s3.9 5.6 3.9 9v34.6c0 1.8-.4 3.5-1.1 5-1.3 3.8-5.5 13.8-17.1 21.4h4.6c3.9 0 7.6-.7 11-2 3.4-1.4 6.4-3.2 8.9-5.7 2.6-2.4 4.6-5.2 6-8.4s2.1-6.6 2.1-10.3v-28.3-6.2c.2-3.6-.5-7-2-10.2z" fill="url(#b)"/><path d="m75.5 122.4c.7.4 1.4.6 2.2.9-.7-.3-1.4-.6-2.2-.9z" fill="#ffd103"/><path d="m118.1 123.9h-36.3c-1.5 0-2.9-.2-4.2-.6-.8-.2-1.5-.5-2.2-.9-1.2-.6-2.3-1.4-3.3-2.4-2.6-2.5-4-5.6-4-9v-34.5c0-3.5 1.3-6.5 4-9 .4-.3.7-.7 1.1-1 3.5-5.4 9.6-11.9 19.6-16.4h-11c-3.9 0-7.5.7-10.9 2-3.4 1.4-6.4 3.2-9 5.7-2.6 2.4-4.6 5.3-6 8.5s-2.1 6.6-2.1 10.2v25.8 8.8c0 3.7.7 7.1 2.1 10.3s3.4 6 6 8.4 5.6 4.3 9 5.7 7.1 2 10.9 2h11.6 13.1 7c11.6-7.6 15.8-17.5 17.1-21.4-.7 1.4-1.6 2.8-2.9 4-2.5 2.5-5.7 3.8-9.6 3.8z" fill="url(#c)"/><path d="m93 110.2v39.6h.4 13.1.5v-46.3z" fill="#fff"/></svg>