<svg height="21" viewBox="0 0 22 21" width="22" xmlns="http://www.w3.org/2000/svg"><g fill="none" fill-rule="evenodd"><path d="m-2-2h25.92v25.92h-25.92z"/><g stroke-width="1.98" transform="translate(1.24 1.888)"><path d="m17.28 17.712h-15.12c-1.19293506 0-2.16-.9670649-2.16-2.16v-9.72c0-1.19293506.96706494-2.16 2.16-2.16h15.12c1.1929351 0 2.16.96706494 2.16 2.16v9.72c0 1.1929351-.9670649 2.16-2.16 2.16z" stroke="#fffdfd"/><path d="m14.58 11.232c-.2982338 0-.54-.2417662-.54-.54s.2417662-.54.54-.54.54.2417662.54.54-.2417662.54-.54.54z" fill="#fff" fill-rule="nonzero" stroke="#fff" stroke-linecap="round" stroke-linejoin="round"/><path d="m16.2 3.672v-1.50876c-.0001867-.67089796-.312107-1.30362116-.8441441-1.7123272s-1.2237817-.54698906-1.8720559-.3742328l-11.88 3.16764c-.94589252.25206744-1.60401702 1.10873724-1.60380005 2.08764v.50004" stroke="#fffdfd"/></g></g></svg>